<svg width="410" height="330" viewBox="0 0 410 330" fill="none" xmlns="http://www.w3.org/2000/svg">
<path d="M67.5395 321.036L74.384 321.035L77.6402 295.032H67.5382L67.5395 321.036Z" fill="#9E616A"/>
<path d="M65.7933 318.835L67.72 318.835L75.2418 315.822L79.2733 318.834H79.2738C81.5521 318.834 83.737 319.726 85.348 321.312C86.959 322.899 87.8641 325.051 87.8643 327.295V327.57L65.7937 327.57L65.7933 318.835Z" fill="#2F2E41"/>
<path d="M99.3394 321.036L106.184 321.035L109.44 295.032H99.3381L99.3394 321.036Z" fill="#9E616A"/>
<path d="M97.5933 318.835L99.5199 318.835L107.042 315.822L111.073 318.834H111.074C113.352 318.834 115.537 319.726 117.148 321.312C118.759 322.899 119.664 325.051 119.664 327.295V327.57L97.5937 327.57L97.5933 318.835Z" fill="#2F2E41"/>
<path d="M104.811 178.734L51.0316 180.116L51.9669 205.909C51.9669 205.909 51.0316 212.818 52.9022 214.66C54.7728 216.502 55.7081 216.502 54.7728 219.726C53.8375 222.951 58.779 228.216 58.1788 228.808C57.5786 229.399 56.1757 232.623 56.1757 232.623L60.8521 258.876C60.8521 258.876 64.1256 304.474 65.0609 305.395C65.9962 306.316 66.9315 305.395 65.9962 307.698C65.0609 310.001 64.1256 309.08 65.0609 310.001C65.8894 310.881 66.6699 311.803 67.3991 312.765H78.7055C78.7055 312.765 79.5579 308.159 79.5579 307.698C79.5579 307.238 80.4932 304.474 80.4932 304.013C80.4932 303.553 79.6665 302.739 79.6665 302.739C79.3809 301.802 79.1879 300.841 79.0903 299.868C79.0903 298.947 76.2844 263.482 76.2844 263.482L81.8962 217.424L95.4578 262.561C95.4578 262.561 95.4578 302.171 96.3931 303.092C97.3284 304.014 97.3284 303.553 96.8607 305.395C96.3931 307.238 94.5225 306.777 95.9255 308.159C97.3284 309.541 97.796 307.238 97.3284 309.541L96.8607 311.843L110.89 312.041C110.89 312.041 112.761 308.159 111.825 306.777C110.89 305.395 110.946 305.772 112.087 303.511C113.228 301.25 113.696 300.789 113.228 300.329C112.761 299.868 112.761 297.418 112.761 297.418L110.422 253.349C110.422 253.349 109.955 206.83 109.955 205.448C109.92 204.737 110.053 204.028 110.343 203.376V201.501L108.552 194.855L104.811 178.734Z" fill="#2F2E41"/>
<path d="M165.672 78.2792C165.413 78.9867 165.001 79.6298 164.463 80.1632C163.924 80.6967 163.274 81.1074 162.558 81.3665C161.841 81.6256 161.075 81.7267 160.315 81.6629C159.554 81.599 158.817 81.3717 158.155 80.9968L134.811 100.259L133.542 90.8436L156.375 73.6286C157.088 72.5753 158.168 71.8163 159.412 71.4952C160.655 71.1742 161.975 71.3135 163.121 71.8867C164.267 72.46 165.159 73.4273 165.629 74.6055C166.1 75.7837 166.115 77.0908 165.672 78.2792V78.2792Z" fill="#9E616A"/>
<path d="M62.736 86.2292C70.7425 86.2292 77.233 79.8367 77.233 71.951C77.233 64.0654 70.7425 57.6729 62.736 57.6729C54.7296 57.6729 48.2391 64.0654 48.2391 71.951C48.2391 79.8367 54.7296 86.2292 62.736 86.2292Z" fill="#9E616A"/>
<path d="M74.4888 57.741C73.1391 54.5727 67.3551 52.6915 58.2027 52.9748C49.0502 53.2582 47.4474 64.0081 47.4474 64.0081C42.4062 68.636 50.5451 83.0851 51.9571 81.0929C53.3691 79.1008 55.7399 80.9838 55.7399 80.9838L53.4806 68.4674C55.8665 69.3714 58.4324 69.9784 60.6765 68.9252L56.9584 66.9669C60.0399 67.3446 63.1216 67.7223 66.2032 68.1L62.3906 65.2111C62.483 65.1811 62.5755 65.1499 62.6679 65.1192C64.1969 65.7685 65.8343 66.1347 67.4981 66.1993C69.4419 66.185 71.5075 65.2879 72.322 63.5496C72.5386 63.0722 72.6559 62.557 72.667 62.0343C75.3471 62.8913 76.7543 65.9836 76.7543 65.9836C76.2455 63.1761 75.4874 60.418 74.4888 57.741Z" fill="#2F2E41"/>
<path d="M74.3403 86.8679C71.1029 86.8679 69.018 87.3079 63.9806 88.1433C54.6827 89.6866 60.2511 98.3878 60.2511 98.3878C60.2511 98.3878 60.6719 98.1774 59.5324 98.3878C58.3928 98.5983 54.5079 101.908 54.5079 101.908L47.5604 107.985C37.0906 116.078 39.4345 128.705 39.4345 128.705L54.7022 143.837L48.0137 174.199C48.0137 174.199 50.8561 178.708 49.3863 180.729C47.9165 182.751 62.336 182.17 62.336 182.17C72.2878 186.539 107.349 182.846 107.349 182.846C106.863 181.596 102.169 171.91 102.169 171.91C104.209 168.44 102.266 163.428 102.266 163.428C102.266 163.428 100.24 139.718 98.9446 136.44C97.6497 133.162 102.26 115.402 105.29 115.593C108.32 115.785 127.894 105.951 127.894 105.951C127.894 105.951 127.402 105.179 133.863 102.578C137.575 101.141 140.978 99.0274 143.893 96.3471L146.548 91.1243C145.272 91.609 140.966 83.6121 140.966 83.6121L139.089 84.317L138.001 84.0074C138.001 84.0074 129.512 86.3861 127.777 88.1207C126.042 89.8552 125.459 89.3706 123.892 89.7596C122.325 90.1486 122.131 91.2327 121.639 91.1115C121.147 90.9904 120.273 92.4571 119.586 92.2658C118.9 92.0745 117.43 92.8461 116.453 93.0374C115.475 93.2287 108.527 96.1239 108.527 96.1239C104.228 93.9812 92.5734 94.8485 92.5734 94.8485C92.5734 94.8485 88.7597 92.6357 87.6784 94.8485C87.3875 95.4772 86.9204 96.011 86.332 96.3872C85.7436 96.7634 85.0583 96.9663 84.3568 96.9721L79.7079 95.0143C79.4378 95.9856 74.3669 85.861 74.3403 86.8679Z" fill="#6AD59D"/>
<path d="M52.1451 205.694C51.6373 205.133 51.2608 204.468 51.0419 203.748C50.823 203.028 50.7672 202.269 50.8783 201.525C50.9894 200.781 51.2648 200.07 51.685 199.442C52.1053 198.815 52.6601 198.285 53.3106 197.892L46.7241 172.391L55.7291 175.789L60.7336 199.87C61.3327 200.99 61.4938 202.287 61.1865 203.517C60.8791 204.746 60.1246 205.821 59.066 206.539C58.0073 207.257 56.7181 207.568 55.4425 207.412C54.1669 207.256 52.9937 206.645 52.1451 205.694Z" fill="#9E616A"/>
<path d="M40.0237 123.855L39.2103 134.038C39.2103 134.038 38.1993 145.226 38.464 147.295C38.7287 149.363 39.2218 161.997 39.2218 161.997L47.7935 178.698L57.5058 176.147L56.9246 168.313L57.5058 175.509L58.8007 169.132L55.5633 158.291L57.5058 154.465L56.5262 141.621L40.0237 123.855Z" fill="#6AD59D"/>
<path d="M340.336 249.585H298.466C297.35 249.583 296.28 249.146 295.491 248.369C294.702 247.592 294.258 246.539 294.257 245.44V209.728C294.258 208.629 294.702 207.576 295.491 206.798C296.28 206.021 297.35 205.584 298.466 205.583H340.336C341.452 205.584 342.522 206.021 343.311 206.798C344.1 207.576 344.543 208.629 344.545 209.728V245.44C344.543 246.539 344.1 247.592 343.311 248.369C342.522 249.146 341.452 249.583 340.336 249.585Z" fill="#F2F2F2"/>
<path d="M340.336 204.307H298.466C297.35 204.306 296.28 203.869 295.491 203.092C294.702 202.315 294.258 201.261 294.257 200.162V164.45C294.258 163.351 294.702 162.298 295.491 161.521C296.28 160.744 297.35 160.306 298.466 160.305H340.336C341.452 160.306 342.522 160.744 343.311 161.521C344.1 162.298 344.543 163.351 344.545 164.45V200.162C344.543 201.261 344.1 202.315 343.311 203.092C342.522 203.869 341.452 204.306 340.336 204.307Z" fill="#F2F2F2"/>
<path d="M340.336 294.862H298.466C297.35 294.861 296.28 294.424 295.491 293.647C294.702 292.869 294.258 291.816 294.257 290.717V255.005C294.258 253.906 294.702 252.852 295.491 252.075C296.28 251.298 297.35 250.861 298.466 250.86H340.336C341.452 250.861 342.522 251.298 343.311 252.075C344.1 252.852 344.543 253.906 344.545 255.005V290.717C344.543 291.816 344.1 292.869 343.311 293.647C342.522 294.424 341.452 294.861 340.336 294.862Z" fill="#F2F2F2"/>
<path d="M288.753 294.862H246.883C245.767 294.861 244.697 294.424 243.908 293.647C243.119 292.869 242.675 291.816 242.674 290.717V255.005C242.675 253.906 243.119 252.852 243.908 252.075C244.697 251.298 245.767 250.861 246.883 250.86H288.753C289.869 250.861 290.939 251.298 291.728 252.075C292.517 252.852 292.961 253.906 292.962 255.005V290.717C292.961 291.816 292.517 292.869 291.728 293.647C290.939 294.424 289.869 294.861 288.753 294.862Z" fill="#F2F2F2"/>
<path d="M402.614 204.307H350.048C348.932 204.306 347.863 203.869 347.074 203.092C346.285 202.315 345.841 201.261 345.84 200.162V164.45C345.841 163.351 346.285 162.298 347.074 161.521C347.863 160.744 348.932 160.306 350.048 160.305H402.614C403.73 160.306 404.8 160.744 405.589 161.521C406.378 162.298 406.822 163.351 406.823 164.45V200.162C406.822 201.261 406.378 202.315 405.589 203.092C404.8 203.869 403.73 204.306 402.614 204.307Z" fill="#F2F2F2"/>
<path d="M189.472 158.711V158.577H191.415V158.711H241.055V158.577H242.998V158.711H292.638V158.989H294.581V158.711H344.221V158.989H346.163V158.711H406.499V23.7716C406.499 20.7056 405.886 17.6697 404.695 14.8371C403.503 12.0046 401.757 9.43085 399.556 7.26291C397.355 5.09496 394.742 3.37525 391.866 2.20197C388.99 1.02869 385.908 0.424805 382.795 0.424805H151.786C145.499 0.424806 139.47 2.88454 135.024 7.26291C130.579 11.6413 128.081 17.5796 128.081 23.7715V158.711H189.472Z" fill="#E6E6E6"/>
<path d="M402.614 205.583H350.048C347.728 205.583 345.84 209.364 345.84 214.011V290.717C345.841 291.606 346.132 292.472 346.67 293.186C347.208 293.9 347.964 294.425 348.828 294.683C349.192 294.915 349.615 295.041 350.048 295.047H402.614C403.047 295.041 403.47 294.915 403.834 294.683C404.698 294.425 405.454 293.9 405.992 293.186C406.53 292.472 406.822 291.606 406.823 290.717V214.011C406.823 209.364 404.935 205.583 402.614 205.583Z" fill="#F2F2F2"/>
<path d="M185.588 294.862H131.966C130.851 294.861 129.781 294.424 128.992 293.647C128.203 292.869 127.759 291.816 127.758 290.717V255.005C127.759 253.906 128.203 252.852 128.992 252.075C129.781 251.298 130.851 250.861 131.966 250.86H185.588C186.703 250.861 187.773 251.298 188.562 252.075C189.351 252.852 189.795 253.906 189.796 255.005V290.717C189.795 291.816 189.351 292.869 188.562 293.647C187.773 294.424 186.703 294.861 185.588 294.862Z" fill="#F2F2F2"/>
<path d="M185.588 249.585H131.966C130.851 249.583 129.781 249.146 128.992 248.369C128.203 247.592 127.759 246.539 127.758 245.44V209.728C127.759 208.629 128.203 207.576 128.992 206.798C129.781 206.021 130.851 205.584 131.966 205.583H185.588C186.703 205.584 187.773 206.021 188.562 206.798C189.351 207.576 189.795 208.629 189.796 209.728V245.44C189.795 246.539 189.351 247.592 188.562 248.369C187.773 249.146 186.703 249.583 185.588 249.585Z" fill="#F2F2F2"/>
<path d="M346.163 297.094V296.312H344.221V297.094H294.581V297.588H292.638V297.094H242.998V297.588H241.055V297.094H191.415V297.588H189.472V297.094H128.081V304.224C128.081 310.416 130.579 316.354 135.024 320.732C139.47 325.111 145.499 327.57 151.786 327.57H382.795C389.081 327.57 395.111 325.111 399.556 320.732C404.002 316.354 406.499 310.415 406.499 304.224V297.094H346.163Z" fill="#E6E6E6"/>
<path d="M185.588 204.307H131.966C130.851 204.306 129.781 203.869 128.992 203.092C128.203 202.315 127.759 201.261 127.758 200.162V164.45C127.759 163.351 128.203 162.298 128.992 161.521C129.781 160.744 130.851 160.306 131.966 160.305H185.588C186.703 160.306 187.773 160.744 188.562 161.521C189.351 162.298 189.795 163.351 189.796 164.45V200.162C189.795 201.261 189.351 202.315 188.562 203.092C187.773 203.869 186.703 204.306 185.588 204.307Z" fill="#F2F2F2"/>
<path d="M237.17 249.585H195.3C194.184 249.583 193.114 249.146 192.325 248.369C191.536 247.592 191.093 246.539 191.091 245.44V209.728C191.093 208.629 191.536 207.576 192.325 206.798C193.114 206.021 194.184 205.584 195.3 205.583H237.17C238.286 205.584 239.356 206.021 240.145 206.798C240.934 207.576 241.378 208.629 241.379 209.728V245.44C241.378 246.539 240.934 247.592 240.145 248.369C239.356 249.146 238.286 249.583 237.17 249.585Z" fill="#F2F2F2"/>
<path d="M237.17 294.862H195.3C194.184 294.861 193.114 294.424 192.325 293.647C191.536 292.869 191.093 291.816 191.091 290.717V255.005C191.093 253.906 191.536 252.852 192.325 252.075C193.114 251.298 194.184 250.861 195.3 250.86H237.17C238.286 250.861 239.356 251.298 240.145 252.075C240.934 252.852 241.378 253.906 241.379 255.005V290.717C241.378 291.816 240.934 292.869 240.145 293.647C239.356 294.424 238.286 294.861 237.17 294.862Z" fill="#F2F2F2"/>
<path d="M288.753 204.307H246.883C245.767 204.306 244.697 203.869 243.908 203.092C243.119 202.315 242.675 201.261 242.674 200.162V164.45C242.675 163.351 243.119 162.298 243.908 161.521C244.697 160.744 245.767 160.306 246.883 160.305H288.753C289.869 160.306 290.939 160.744 291.728 161.521C292.517 162.298 292.961 163.351 292.962 164.45V200.162C292.961 201.261 292.517 202.315 291.728 203.092C290.939 203.869 289.869 204.306 288.753 204.307Z" fill="#F2F2F2"/>
<path d="M288.753 249.585H246.883C245.767 249.583 244.697 249.146 243.908 248.369C243.119 247.592 242.675 246.539 242.674 245.44V209.728C242.675 208.629 243.119 207.576 243.908 206.798C244.697 206.021 245.767 205.584 246.883 205.583H288.753C289.869 205.584 290.939 206.021 291.728 206.798C292.517 207.576 292.961 208.629 292.962 209.728V245.44C292.961 246.539 292.517 247.592 291.728 248.369C290.939 249.146 289.869 249.583 288.753 249.585Z" fill="#F2F2F2"/>
<path d="M237.17 204.307H195.3C194.184 204.306 193.114 203.869 192.325 203.092C191.536 202.315 191.093 201.261 191.091 200.162V164.45C191.093 163.351 191.536 162.298 192.325 161.521C193.114 160.744 194.184 160.306 195.3 160.305H237.17C238.286 160.306 239.356 160.744 240.145 161.521C240.934 162.298 241.378 163.351 241.379 164.45V200.162C241.378 201.261 240.934 202.315 240.145 203.092C239.356 203.869 238.286 204.306 237.17 204.307Z" fill="#F2F2F2"/>
<path d="M360.714 106.604H177.104C172.947 106.599 168.963 104.971 166.024 102.076C163.085 99.1815 161.431 95.2569 161.427 91.1632V51.2584C161.431 47.1647 163.085 43.2401 166.024 40.3454C168.963 37.4508 172.947 35.8225 177.104 35.8179H360.714C364.87 35.8225 368.855 37.4508 371.794 40.3454C374.733 43.2401 376.386 47.1647 376.391 51.2584V91.1632C376.386 95.2569 374.733 99.1816 371.794 102.076C368.855 104.971 364.87 106.599 360.714 106.604Z" fill="white"/>
<path d="M299.341 94.4871H259.844C258.986 94.4871 258.162 94.1511 257.555 93.5532C256.948 92.9552 256.607 92.1441 256.607 91.2985C256.607 90.4528 256.948 89.6418 257.555 89.0438C258.162 88.4458 258.986 88.1099 259.844 88.1099H299.341C300.199 88.1099 301.023 88.4458 301.63 89.0438C302.237 89.6418 302.578 90.4528 302.578 91.2985C302.578 92.1441 302.237 92.9552 301.63 93.5532C301.023 94.1511 300.199 94.4871 299.341 94.4871Z" fill="#6AD59D"/>
<path d="M353.729 94.8059H314.233C313.374 94.8059 312.551 94.47 311.944 93.872C311.337 93.2741 310.995 92.4631 310.995 91.6174C310.995 90.7718 311.337 89.9608 311.944 89.3628C312.551 88.7649 313.374 88.429 314.233 88.429H353.729C354.588 88.429 355.411 88.7649 356.019 89.3628C356.626 89.9608 356.967 90.7718 356.967 91.6174C356.967 92.4631 356.626 93.2741 356.019 93.872C355.411 94.47 354.588 94.8059 353.729 94.8059Z" fill="#6AD59D"/>
<path d="M243.657 94.8059H204.161C203.302 94.8059 202.479 94.47 201.872 93.872C201.264 93.2741 200.923 92.4631 200.923 91.6174C200.923 90.7718 201.264 89.9608 201.872 89.3628C202.479 88.7649 203.302 88.429 204.161 88.429H243.657C244.516 88.429 245.339 88.7649 245.946 89.3628C246.553 89.9608 246.895 90.7718 246.895 91.6174C246.895 92.4631 246.553 93.2741 245.946 93.872C245.339 94.47 244.516 94.8059 243.657 94.8059Z" fill="#6AD59D"/>
<path d="M332.039 198.115C334.184 198.115 335.923 196.402 335.923 194.289C335.923 192.176 334.184 190.463 332.039 190.463C329.893 190.463 328.154 192.176 328.154 194.289C328.154 196.402 329.893 198.115 332.039 198.115Z" fill="#6AD59D"/>
<path d="M333.981 244.03C336.127 244.03 337.866 242.317 337.866 240.204C337.866 238.091 336.127 236.378 333.981 236.378C331.835 236.378 330.096 238.091 330.096 240.204C330.096 242.317 331.835 244.03 333.981 244.03Z" fill="#6AD59D"/>
<path d="M396.139 198.115C398.285 198.115 400.024 196.402 400.024 194.289C400.024 192.176 398.285 190.463 396.139 190.463C393.994 190.463 392.255 192.176 392.255 194.289C392.255 196.402 393.994 198.115 396.139 198.115Z" fill="#6AD59D"/>
<path d="M37.2479 294.165L36.6018 279.859C29.8673 276.313 22.3559 274.441 14.7197 274.403C25.2293 282.866 23.9159 299.179 31.0412 310.559C33.2911 314.092 36.3194 317.081 39.9015 319.304C43.4836 321.527 47.5277 322.928 51.7343 323.403L60.5291 328.706C61.7359 322.08 61.4698 315.275 59.7492 308.76C58.0286 302.245 54.8944 296.175 50.5625 290.967C48.1029 288.07 45.2826 285.489 42.1682 283.286C40.0618 288.756 37.2479 294.165 37.2479 294.165Z" fill="#F2F2F2"/>
<path d="M0.126773 329.073C0.126472 329.172 0.14619 329.271 0.184807 329.363C0.223424 329.456 0.280164 329.539 0.351776 329.61C0.423389 329.68 0.508468 329.736 0.602091 329.774C0.695714 329.812 0.796048 329.832 0.89732 329.832H409C409.204 329.832 409.4 329.752 409.544 329.609C409.689 329.467 409.77 329.274 409.77 329.073C409.77 328.872 409.689 328.678 409.544 328.536C409.4 328.394 409.204 328.314 409 328.314H0.89728C0.796012 328.314 0.695668 328.333 0.602052 328.371C0.508435 328.409 0.423384 328.465 0.351776 328.536C0.280169 328.606 0.223423 328.69 0.184807 328.782C0.146192 328.874 0.126475 328.973 0.126773 329.073Z" fill="#CCCCCC"/>
</svg>
