<svg width="266" height="85" viewBox="0 0 266 85" fill="none" xmlns="http://www.w3.org/2000/svg">
<path d="M71.7214 15.6341C72.3526 18.4281 53.8434 48.3758 52.8371 50.1236C40.3864 71.7525 39.5776 68.6234 44.0903 76.4579C45.4255 78.7762 47.8798 83.4235 49.364 84.8679C51.6671 82.6017 59.4292 68.3939 61.6801 64.4582C66.2399 56.4855 69.8737 50.5421 74.1142 43.1703L92.5618 11.3409C93.9426 8.99571 98.1454 2.83154 98.2438 0.259957L60.3979 0C57.3636 0.00364016 57.512 0.111465 56.2899 2.06046L49.7493 13.7829C49.5458 16.9866 65.8968 13.6055 71.7214 15.6341Z" fill="white"/>
<path d="M37.1046 63.7886C39.034 62.8503 61.5499 22.9437 61.9091 21.2735L45.6863 21.2728L41.7151 27.3639C39.9152 30.3714 39.2354 32.4203 37.1046 33.5577L36.3668 32.8525C35.6139 31.9721 36.1554 32.7164 35.4814 31.7318C31.0339 25.2266 21.9367 7.47681 16.9599 0.0913086L0 0.162228C2.56958 5.35473 36.1887 63.1001 37.1046 63.7886Z" fill="white"/>
<path fill-rule="evenodd" clip-rule="evenodd" d="M100.245 56.5967L92.0132 33.9246H95.1276L101.038 50.1788L106.957 33.9246H110.091L101.831 56.5967H100.245ZM115.599 42.0155V56.5967H112.664V42.0155H115.599ZM114.124 36.0236C114.69 36.0236 115.178 36.2218 115.585 36.6181C115.991 37.0149 116.194 37.5034 116.194 38.0788C116.194 38.6545 115.991 39.1426 115.585 39.5394C115.178 39.9362 114.69 40.1343 114.124 40.1343C113.568 40.1343 113.084 39.9362 112.678 39.5394C112.272 39.1426 112.069 38.6545 112.069 38.0788C112.069 37.5034 112.272 37.0149 112.678 36.6181C113.084 36.2218 113.568 36.0236 114.124 36.0236ZM123.023 43.9888C124.116 42.504 125.465 41.7255 127.061 41.6479V44.6947C125.992 44.7527 125.141 45.0962 124.512 45.7298C123.554 46.6727 123.061 47.7996 123.023 49.1005V56.5967H120.092V42.0155H123.023V43.9888ZM132.245 42.0155V36.5459H135.176V42.0155H137.797V44.9509H135.176V56.5967H132.245V44.9509H129.624V42.0155H132.245ZM147.392 56.7949C145.55 56.7949 144.065 56.2341 142.943 55.1072C141.816 53.9851 141.24 52.5778 141.216 50.8851V42.0155H144.162V50.7738C144.162 51.6153 144.466 52.3358 145.08 52.9403C145.695 53.5449 146.459 53.8499 147.378 53.8499C148.219 53.8499 148.95 53.5499 149.569 52.9504C150.183 52.3504 150.492 51.6249 150.492 50.7738V42.0155H153.428V50.8851C153.399 52.5778 152.828 53.9851 151.711 55.1072C150.589 56.2341 149.148 56.7949 147.392 56.7949ZM164.89 40.8256C167.119 40.8256 169.02 41.6142 170.591 43.1957C172.163 44.7723 172.951 46.6727 172.951 48.9023C172.951 51.1318 172.163 53.0371 170.591 54.6138C169.02 56.1904 167.119 56.9788 164.89 56.9788C162.67 56.9788 160.769 56.1904 159.193 54.6138C157.616 53.0371 156.828 51.1318 156.828 48.9023C156.828 46.6727 157.616 44.7723 159.193 43.1957C160.769 41.6142 162.67 40.8256 164.89 40.8256ZM164.89 43.8437C163.492 43.8437 162.297 44.3418 161.311 45.333C160.324 46.3248 159.831 47.5142 159.831 48.9023C159.831 50.2998 160.324 51.4897 161.311 52.4714C162.297 53.4581 163.492 53.9466 164.89 53.9466C166.287 53.9466 167.477 53.4581 168.464 52.4714C169.455 51.4897 169.948 50.2998 169.948 48.9023C169.948 47.5142 169.455 46.3248 168.464 45.333C167.477 44.3418 166.287 43.8437 164.89 43.8437ZM178.9 52.5439C178.983 52.9791 179.118 53.2838 179.297 53.4677C179.645 53.8061 180.061 53.9754 180.545 53.9754C181.023 53.9754 181.439 53.8061 181.782 53.4677C182.126 53.1243 182.3 52.7033 182.3 52.2053C182.3 51.7218 182.131 51.3108 181.792 50.9724C181.555 50.735 181.047 50.3725 180.274 49.8793C179.214 49.3036 178.465 48.7958 178.02 48.3511C177.246 47.5772 176.859 46.6439 176.859 45.5605C176.859 44.4628 177.246 43.5245 178.02 42.746C178.793 41.9671 179.732 41.5803 180.825 41.5803C181.923 41.5803 182.832 41.9479 183.562 42.683C184.079 43.2004 184.409 43.7857 184.554 44.424L181.705 45.2463C181.637 45.0093 181.575 44.8545 181.507 44.782C181.338 44.6076 181.11 44.5254 180.825 44.5254C180.545 44.5254 180.298 44.6272 180.095 44.8303C179.892 45.0335 179.79 45.275 179.79 45.5605C179.79 45.8408 179.892 46.0828 180.09 46.281C180.269 46.4503 180.675 46.7406 181.308 47.1467C182.479 47.79 183.33 48.3753 183.857 48.9023C184.776 49.8309 185.231 50.9286 185.231 52.2053C185.231 53.5064 184.776 54.6187 183.867 55.5424C182.953 56.4611 181.845 56.9208 180.545 56.9208C179.248 56.9208 178.146 56.4611 177.227 55.5328C176.593 54.8991 176.177 54.111 175.979 53.1678L178.9 52.5439ZM216.415 51.1993L218.615 53.1678C215.931 55.615 213.092 56.8387 210.099 56.8387C206.897 56.8387 204.165 55.7069 201.906 53.4531C199.652 51.1947 198.521 48.4621 198.521 45.2605C198.521 42.0688 199.652 39.3412 201.906 37.0729C204.165 34.8046 206.897 33.6731 210.099 33.6731C213.092 33.6731 215.931 34.8967 218.615 37.3436L216.415 39.3412C214.393 37.5469 212.289 36.6474 210.099 36.6474C207.729 36.6474 205.697 37.4889 204.015 39.1669C202.327 40.8499 201.485 42.8812 201.485 45.2605C201.485 47.6498 202.327 49.6858 204.015 51.3688C205.697 53.0517 207.729 53.8883 210.099 53.8883C212.289 53.8883 214.393 52.9937 216.415 51.1993ZM225.076 43.9888C226.169 42.504 227.518 41.7255 229.115 41.6479V44.6947C228.046 44.7527 227.195 45.0962 226.566 45.7298C225.608 46.6727 225.115 47.7996 225.076 49.1005V56.5967H222.145V42.0155H225.076V43.9888ZM236.436 53.2937C236.93 53.7289 237.82 53.9466 239.116 53.9466C240.513 53.9466 241.708 53.4581 242.699 52.4714C242.82 52.3408 243.072 52.0509 243.449 51.5961L246.385 52.6454C245.664 53.637 245.146 54.29 244.823 54.6138C243.246 56.1904 241.345 56.9788 239.116 56.9788C236.896 56.9788 234.995 56.1904 233.419 54.6138C231.842 53.0371 231.054 51.1318 231.054 48.9023C231.054 46.6727 231.842 44.7723 233.419 43.1957C234.995 41.6142 236.896 40.8256 239.116 40.8256C241.021 40.8256 242.694 41.4014 244.131 42.5571C244.368 42.7555 244.6 42.9683 244.823 43.1907C244.919 43.2875 245.19 43.5875 245.63 44.0852L244.16 45.575L236.436 53.2937ZM241.34 44.2258C241.007 43.9742 240.267 43.8437 239.116 43.8437C237.728 43.8437 236.538 44.3368 235.552 45.3235C234.565 46.3147 234.072 47.5046 234.072 48.9023C234.072 50.0436 234.197 50.7884 234.454 51.1268L241.34 44.2258ZM262.436 49.9953V47.8238C262.267 46.9097 261.807 46.0778 261.063 45.333C260.076 44.3418 258.886 43.8437 257.489 43.8437C256.091 43.8437 254.901 44.3418 253.91 45.333C252.923 46.3248 252.43 47.5142 252.43 48.9023C252.43 50.2998 252.923 51.4897 253.91 52.4714C254.901 53.4581 256.091 53.9466 257.489 53.9466C258.886 53.9466 260.076 53.4581 261.063 52.4714C261.807 51.7267 262.267 50.8997 262.436 49.9953ZM262.436 43.0214V33.9246H265.381V56.5967H262.436V54.7831C261.019 56.2484 259.37 56.9788 257.489 56.9788C255.259 56.9788 253.358 56.1904 251.787 54.6138C250.215 53.0371 249.427 51.1318 249.427 48.9023C249.427 46.6727 250.215 44.7723 251.787 43.1957C253.358 41.6142 255.259 40.8256 257.489 40.8256C259.37 40.8256 261.019 41.5608 262.436 43.0214Z" fill="white"/>
</svg>
