<svg width="260" height="198" viewBox="0 0 260 198" fill="none" xmlns="http://www.w3.org/2000/svg">
<g clip-path="url(#clip0_1_2001)">
<path d="M104.039 41.0606H103.091V15.0527C103.091 13.076 102.702 11.1186 101.946 9.29229C101.19 7.46601 100.082 5.80661 98.686 4.40884C97.2896 3.01107 95.6317 1.90229 93.8071 1.14582C91.9826 0.389354 90.027 1.67486e-06 88.0521 0H33.0021C29.0136 -7.61054e-06 25.1884 1.58589 22.3681 4.40881C19.5478 7.23173 17.9634 11.0604 17.9634 15.0527V157.734C17.9634 159.711 18.3524 161.668 19.1081 163.495C19.8639 165.321 20.9716 166.98 22.3681 168.378C23.7646 169.776 25.4224 170.885 27.247 171.641C29.0716 172.398 31.0271 172.787 33.002 172.787H88.052C92.0405 172.787 95.8657 171.201 98.686 168.378C101.506 165.555 103.091 161.727 103.091 157.734V59.5735H104.039V41.0606Z" fill="#3F3D56"/>
<path d="M88.6586 3.9162H81.4728C81.8032 4.72713 81.9294 5.60697 81.8401 6.47819C81.7508 7.34942 81.4488 8.1853 80.9608 8.91219C80.4727 9.63909 79.8136 10.2347 79.0414 10.6465C78.2692 11.0584 77.4076 11.2738 76.5326 11.2739H44.9952C44.1202 11.2738 43.2587 11.0584 42.4865 10.6465C41.7143 10.2347 41.0551 9.63909 40.5671 8.9122C40.079 8.1853 39.7771 7.34942 39.6878 6.4782C39.5985 5.60697 39.7246 4.72713 40.0551 3.9162H33.3435C31.8687 3.9162 30.4083 4.20696 29.0457 4.77188C27.6831 5.3368 26.4451 6.16482 25.4022 7.20866C24.3593 8.2525 23.5321 9.49172 22.9677 10.8556C22.4033 12.2194 22.1128 13.6812 22.1128 15.1574V157.63C22.1128 159.106 22.4033 160.568 22.9677 161.931C23.5321 163.295 24.3593 164.535 25.4022 165.578C26.4451 166.622 27.6831 167.45 29.0457 168.015C30.4083 168.58 31.8687 168.871 33.3435 168.871H88.6586C90.1334 168.871 91.5938 168.58 92.9564 168.015C94.319 167.45 95.557 166.622 96.5999 165.578C97.6428 164.535 98.47 163.295 99.0344 161.931C99.5988 160.568 99.8893 159.106 99.8893 157.63V15.1574C99.8893 13.6812 99.5988 12.2194 99.0344 10.8556C98.47 9.49172 97.6428 8.2525 96.5999 7.20866C95.557 6.16482 94.319 5.3368 92.9564 4.77188C91.5938 4.20696 90.1334 3.9162 88.6586 3.9162Z" fill="white"/>
<path d="M121.684 172.812H0.318543C0.23406 172.812 0.153037 172.778 0.0932989 172.718C0.0335605 172.658 0 172.577 0 172.493C0 172.408 0.0335605 172.327 0.0932989 172.267C0.153037 172.207 0.23406 172.174 0.318543 172.174H121.684C121.768 172.174 121.849 172.207 121.909 172.267C121.969 172.327 122.002 172.408 122.002 172.493C122.002 172.577 121.969 172.658 121.909 172.718C121.849 172.778 121.768 172.812 121.684 172.812Z" fill="#CBCBCB"/>
<path d="M61.0008 110.217C75.8572 110.217 87.9006 98.1621 87.9006 83.2919C87.9006 68.4217 75.8572 56.367 61.0008 56.367C46.1445 56.367 34.1011 68.4217 34.1011 83.2919C34.1011 98.1621 46.1445 110.217 61.0008 110.217Z" fill="#6AD59D"/>
<path d="M58.3354 93.5629C57.7303 93.564 57.1412 93.368 56.657 93.0046L56.627 92.9821L50.3052 88.1416C50.0124 87.9169 49.7667 87.6367 49.5821 87.317C49.3975 86.9972 49.2776 86.6443 49.2293 86.2782C49.181 85.9121 49.2052 85.54 49.3005 85.1833C49.3958 84.8266 49.5604 84.4921 49.7849 84.1991C50.0094 83.906 50.2893 83.6601 50.6087 83.4753C50.9281 83.2905 51.2808 83.1705 51.6465 83.1222C52.0123 83.0738 52.384 83.098 52.7404 83.1934C53.0968 83.2889 53.4309 83.4536 53.7237 83.6783L57.8185 86.8213L67.4946 74.1859C67.719 73.893 67.9988 73.6471 68.3181 73.4624C68.6374 73.2777 68.9899 73.1578 69.3555 73.1095C69.7211 73.0611 70.0926 73.0853 70.4489 73.1807C70.8051 73.2761 71.1391 73.4408 71.4318 73.6654L71.4326 73.666L71.3726 73.7495L71.4342 73.666C72.0247 74.1202 72.411 74.7903 72.5084 75.5293C72.6058 76.2683 72.4063 77.0157 71.9537 77.6077L60.5724 92.463C60.3091 92.8053 59.9706 93.0822 59.5831 93.2724C59.1956 93.4626 58.7695 93.5609 58.3379 93.5596L58.3354 93.5629Z" fill="white"/>
<path d="M221.147 175.458C221.474 174.928 221.86 174.437 222.296 173.993C222.476 173.806 222.665 173.63 222.861 173.459C224.05 172.4 225.5 171.676 227.061 171.363C228.623 171.05 230.239 171.16 231.744 171.679C233.25 172.199 234.589 173.111 235.626 174.32C236.662 175.53 237.358 176.995 237.642 178.563C238.956 173.7 235.536 168.91 232.097 165.23C228.657 161.552 224.725 157.517 224.745 152.477C224.755 149.673 226.125 147.171 228.195 145.316C228.259 145.26 228.322 145.204 228.387 145.15C230.889 143.004 234.107 141.881 237.398 142.006C243.514 142.334 248.854 146.448 252.563 151.328C258.532 159.181 261.147 170.203 256.969 179.141C253.293 187.003 245.454 191.671 237.453 195.424C236.336 195.948 235.221 196.457 234.108 196.949C234.101 196.951 234.093 196.956 234.085 196.958C234.032 196.982 233.978 197.006 233.928 197.03C233.698 197.131 233.469 197.233 233.241 197.333L233.346 197.402L233.675 197.615C233.561 197.546 233.448 197.479 233.334 197.41C233.3 197.389 233.265 197.369 233.231 197.348C229.301 194.988 225.317 192.491 222.602 188.807C219.787 184.982 218.655 179.502 221.147 175.458Z" fill="#F1F1F1"/>
<path d="M247.364 166.574C248.234 168.555 248.811 170.653 249.077 172.801C249.285 174.716 249.207 176.652 248.844 178.544C248.063 182.432 246.362 186.076 243.882 189.169C242.011 191.516 239.851 193.618 237.453 195.424C236.336 195.948 235.221 196.457 234.108 196.949C234.101 196.951 234.093 196.956 234.085 196.958C234.032 196.982 233.978 197.006 233.928 197.03C233.698 197.131 233.469 197.233 233.241 197.333L233.346 197.402L233.675 197.615C233.561 197.546 233.448 197.479 233.334 197.41C233.3 197.389 233.265 197.369 233.231 197.348C234.096 194.32 234.223 191.129 233.602 188.042C232.98 184.955 231.629 182.062 229.661 179.606C227.682 177.18 225.158 175.257 222.296 173.993C222.476 173.806 222.665 173.63 222.861 173.459C223.964 173.966 225.019 174.569 226.016 175.262C229.579 177.728 232.255 181.276 233.647 185.382C234.89 189.107 235.046 193.11 234.095 196.92C234.292 196.791 234.49 196.659 234.683 196.527C238.343 194.056 241.717 191.089 244.258 187.449C246.45 184.374 247.853 180.806 248.343 177.06C248.83 172.968 247.807 168.944 245.982 165.293C243.966 161.387 241.427 157.775 238.433 154.558C235.427 151.252 232.028 148.326 228.311 145.847C228.228 145.79 228.169 145.703 228.147 145.605C228.125 145.506 228.142 145.403 228.195 145.316C228.234 145.237 228.304 145.177 228.387 145.15C228.43 145.139 228.474 145.138 228.517 145.146C228.56 145.155 228.601 145.173 228.636 145.2C229.095 145.506 229.549 145.815 229.999 146.134C233.741 148.786 237.14 151.894 240.117 155.385C242.994 158.751 245.612 162.49 247.364 166.574Z" fill="white"/>
<path d="M167.248 12.5019C170.404 12.5019 172.961 9.94183 172.961 6.78381C172.961 3.62579 170.404 1.0657 167.248 1.0657C164.093 1.0657 161.536 3.62579 161.536 6.78381C161.536 9.94183 164.093 12.5019 167.248 12.5019Z" fill="#F1F1F1"/>
<path d="M238.284 89.0237C240.207 89.0237 241.767 87.4628 241.767 85.5374C241.767 83.612 240.207 82.0512 238.284 82.0512C236.36 82.0512 234.801 83.612 234.801 85.5374C234.801 87.4628 236.36 89.0237 238.284 89.0237Z" fill="#F1F1F1"/>
<path d="M136.35 98.5889C138.273 98.5889 139.833 97.0281 139.833 95.1027C139.833 93.1773 138.273 91.6165 136.35 91.6165C134.426 91.6165 132.867 93.1773 132.867 95.1027C132.867 97.0281 134.426 98.5889 136.35 98.5889Z" fill="#F1F1F1"/>
<path d="M138.317 198H259.682C259.766 198 259.847 197.966 259.907 197.907C259.967 197.847 260 197.766 260 197.681C260 197.597 259.967 197.515 259.907 197.456C259.847 197.396 259.766 197.362 259.682 197.362H138.317C138.232 197.362 138.151 197.396 138.091 197.456C138.032 197.515 137.998 197.597 137.998 197.681C137.998 197.766 138.032 197.847 138.091 197.907C138.151 197.966 138.232 198 138.317 198Z" fill="#CBCBCB"/>
<path d="M246.288 30.8112C246.448 29.6787 246.186 28.527 245.554 27.5744C244.922 26.6218 243.962 25.9345 242.858 25.6426C241.753 25.3507 240.579 25.4747 239.56 25.9909C238.54 26.5071 237.745 27.3797 237.326 28.4434L227.477 39.7445L230.367 47.8229L240.271 34.618C240.918 34.8252 241.601 34.8881 242.275 34.8022C242.948 34.7162 243.594 34.4836 244.168 34.1206C244.741 33.7577 245.228 33.2733 245.595 32.7015C245.961 32.1297 246.198 31.4844 246.288 30.8112Z" fill="#FFB7B7"/>
<path d="M205.465 74.7837L238.157 39.8615L233.747 32.8444L192.743 67.5547L205.465 74.7837Z" fill="#3F3D56"/>
<path d="M198.168 53.5652C204.502 53.5652 209.636 48.4262 209.636 42.087C209.636 35.7477 204.502 30.6087 198.168 30.6087C191.835 30.6087 186.701 35.7477 186.701 42.087C186.701 48.4262 191.835 53.5652 198.168 53.5652Z" fill="#2F2E41"/>
<path d="M199.09 35.6028C201.557 33.0981 204.544 31.1653 207.838 29.9404C209.953 29.1562 212.254 28.6718 214.465 29.1171C216.676 29.5624 218.767 31.0933 219.384 33.2645C219.888 35.0399 219.367 36.9515 218.585 38.6228C217.802 40.2941 216.757 41.8439 216.124 43.5775C215.478 45.3464 215.284 47.2488 215.559 49.112C215.834 50.9751 216.57 52.74 217.699 54.2464C218.828 55.7528 220.315 56.953 222.026 57.7382C223.736 58.5233 225.615 58.8685 227.493 58.7423C225.32 59.0338 223.318 60.0556 221.195 60.5995C219.071 61.1434 216.565 61.1065 214.987 59.5839C213.318 57.973 213.285 55.3538 213.365 53.0341C213.485 49.5859 213.605 46.1376 213.725 42.6894C213.786 40.9308 213.839 39.1159 213.205 37.4746C212.571 35.8332 211.066 34.3959 209.308 34.4109C207.975 34.4222 206.796 35.2301 205.728 36.0268C204.659 36.8235 203.528 37.6735 202.201 37.792C200.874 37.9105 199.359 36.9275 199.458 35.5976L199.09 35.6028Z" fill="#2F2E41"/>
<path d="M154.614 119.158C153.513 119.464 152.338 119.355 151.312 118.852C150.286 118.349 149.48 117.487 149.046 116.429C148.613 115.371 148.582 114.19 148.96 113.111C149.338 112.032 150.099 111.129 151.097 110.573L161.004 99.3234L169.384 101.135L157.598 112.69C157.888 113.304 158.04 113.974 158.042 114.654C158.045 115.333 157.899 116.004 157.615 116.621C157.33 117.238 156.914 117.785 156.396 118.223C155.877 118.661 155.269 118.98 154.614 119.158H154.614Z" fill="#FFB7B7"/>
<path d="M187.207 78.8827L162.515 109.906L154.989 106.447L184.011 61.2212L187.207 78.8827Z" fill="#3F3D56"/>
<path d="M167.505 172.56L161.621 172.468L162.328 192.544H167.504L167.505 172.56Z" fill="#FFB7B7"/>
<path d="M168.825 190.852L158.631 190.852H158.631C156.908 190.852 155.255 191.537 154.037 192.756C152.819 193.976 152.134 195.63 152.134 197.354V197.565L168.824 197.566L168.825 190.852Z" fill="#2F2E41"/>
<path d="M206.469 167.235L200.04 171.366L212.899 186.851L217.255 184.052L206.469 167.235Z" fill="#FFB7B7"/>
<path d="M217.453 181.914L208.875 187.427L208.875 187.427C207.425 188.359 206.404 189.829 206.037 191.513C205.67 193.198 205.987 194.96 206.918 196.411L207.032 196.589L221.077 187.564L217.453 181.914Z" fill="#2F2E41"/>
<path d="M208.759 105.932C208.759 105.932 194.475 58.4475 189.885 57.8058C185.295 57.1642 177.899 69.9897 177.899 69.9897C168.31 82.2358 158.422 121.904 158.422 121.904C158.422 121.904 174.905 122.936 186.955 129.353C199.004 135.77 213.224 129.028 213.224 129.028L208.759 105.932Z" fill="#3F3D56"/>
<path opacity="0.1" d="M208.759 105.932C208.759 105.932 194.475 58.4475 189.885 57.8058C185.295 57.1642 179.777 70.1199 179.777 70.1199C174.999 89.888 158.422 121.904 158.422 121.904C158.422 121.904 174.905 122.936 186.955 129.353C199.004 135.77 213.224 129.028 213.224 129.028L208.759 105.932Z" fill="black"/>
<path d="M197.041 91.7247V115.585L199.846 150.149L213.862 176.294L207.172 181.076L188.06 156.207L180.5 131.513L168.629 186.178L159.709 185.54L165.904 109.748L177.658 88.4145L197.041 91.7247Z" fill="#2F2E41"/>
<path d="M182.639 68.6462C178.18 73.11 182.321 77.8926 182.321 77.8926L177.224 89.3709L197.292 94.7912L204.305 63.4242L199.527 58.3227C189.971 58.0039 189.966 57.8057 189.966 57.8057C188.292 59.4457 182.639 68.6462 182.639 68.6462Z" fill="#6AD59D"/>
<path d="M205.113 60.1747C204.202 59.5012 203.166 59.0155 202.066 58.7456C200.965 58.4758 199.823 58.4271 198.703 58.6024C197.584 58.7778 196.511 59.1737 195.545 59.7672C194.58 60.3607 193.742 61.14 193.08 62.06C188.035 69.0911 183.37 80.4447 189.797 94.6046C200.118 117.341 209.099 128.98 212.75 128.979C212.909 128.98 213.068 128.955 213.219 128.905C215.467 128.142 218.716 124.336 219.304 120.981C219.515 119.781 219.465 118.108 218.03 116.96C213.91 113.661 206.512 103.39 204.205 89.87C202.93 82.3996 205.403 75.5948 207.702 71.2019C208.673 69.3842 208.957 67.2771 208.502 65.2668C208.047 63.2565 206.883 61.4776 205.224 60.2564L205.113 60.1747Z" fill="#3F3D56"/>
<path d="M198.758 52.4376C202.849 50.1993 204.352 45.0655 202.116 40.9709C199.88 36.8763 194.751 35.3715 190.66 37.6098C186.569 39.8481 185.066 44.9819 187.302 49.0765C189.538 53.1711 194.667 54.6759 198.758 52.4376Z" fill="#FFB7B7"/>
<path d="M182.837 44.3849H195.027L195.152 42.6333L195.777 44.3849H197.654L197.901 40.9132L199.14 44.3849H202.772V44.2129C202.769 41.7959 201.808 39.4787 200.101 37.7697C198.394 36.0606 196.079 35.0993 193.664 35.0966H191.945C189.531 35.0993 187.216 36.0606 185.508 37.7697C183.801 39.4787 182.84 41.7959 182.837 44.2129V44.3849Z" fill="#2F2E41"/>
<path d="M200.93 50.6811L206.132 48.9917V36.3478H196.307L196.55 36.5909C199.934 39.9741 203.698 51.9772 200.93 50.6811Z" fill="#2F2E41"/>
</g>
<defs>
<clipPath id="clip0_1_2001">
<rect width="260" height="198" fill="white"/>
</clipPath>
</defs>
</svg>
