<svg width="209" height="153" viewBox="0 0 209 153" fill="none" xmlns="http://www.w3.org/2000/svg">
<g clip-path="url(#clip0_1_1050)">
<path d="M63.853 129.002C64.6345 121.206 69.2695 113.433 76.6224 110.727C73.8894 118.797 74.0991 127.574 77.2143 135.505C78.4268 138.559 80.0934 141.829 79.0959 144.96C78.4752 146.909 76.8795 148.426 75.0785 149.394C73.2773 150.361 71.2645 150.85 69.2768 151.33L68.8913 151.664C65.549 144.578 63.0714 136.799 63.853 129.002Z" fill="#F0F0F0"/>
<path d="M76.6995 110.872C72.4976 115.812 69.9591 121.95 69.4445 128.415C69.309 129.805 69.3934 131.207 69.6946 132.571C70.031 133.89 70.7144 135.094 71.6737 136.059C72.5501 136.978 73.5529 137.815 74.1909 138.93C74.509 139.506 74.7018 140.142 74.7567 140.798C74.8116 141.453 74.7274 142.113 74.5095 142.733C74.0068 144.293 72.9735 145.58 71.9192 146.803C70.7487 148.161 69.5113 149.553 69.0422 151.328C68.9854 151.543 68.6551 151.442 68.7119 151.227C69.5279 148.14 72.4631 146.327 73.8168 143.532C74.4485 142.227 74.6909 140.724 74.0375 139.379C73.4662 138.202 72.4329 137.338 71.5374 136.416C70.5878 135.488 69.8797 134.341 69.4753 133.077C69.1056 131.733 68.9673 130.336 69.0663 128.946C69.2392 125.813 69.9037 122.726 71.0354 119.799C72.3084 116.452 74.1448 113.347 76.4649 110.618C76.6086 110.45 76.8423 110.704 76.6995 110.872V110.872Z" fill="white"/>
<path d="M69.4876 126.324C68.4146 126.09 67.4597 125.483 66.7932 124.61C66.1267 123.737 65.7922 122.656 65.8493 121.56C65.852 121.515 65.872 121.473 65.905 121.443C65.938 121.413 65.9815 121.396 66.0263 121.397C66.0711 121.399 66.1136 121.417 66.145 121.449C66.1764 121.481 66.1942 121.524 66.1946 121.569C66.1395 122.59 66.4513 123.597 67.0735 124.408C67.6958 125.22 68.5876 125.782 69.588 125.993C69.8053 126.04 69.7037 126.37 69.4876 126.324Z" fill="white"/>
<path d="M71.1679 135.653C73.0673 134.456 74.4459 132.588 75.029 130.42C75.0866 130.206 75.4169 130.306 75.3594 130.521C74.7484 132.775 73.3098 134.717 71.3306 135.957C71.1418 136.075 70.9802 135.77 71.1679 135.653Z" fill="white"/>
<path d="M72.6366 116.771C73.0329 116.948 73.467 117.024 73.8997 116.992C74.3325 116.959 74.7505 116.82 75.1162 116.586C75.3033 116.466 75.4647 116.771 75.2788 116.891C74.8736 117.147 74.4118 117.3 73.9337 117.337C73.4556 117.374 72.9758 117.293 72.5362 117.102C72.4932 117.087 72.4574 117.057 72.4361 117.017C72.4147 116.977 72.4094 116.93 72.4212 116.886C72.4347 116.843 72.4649 116.806 72.5052 116.784C72.5456 116.763 72.5928 116.758 72.6366 116.771H72.6366Z" fill="white"/>
<path d="M99.5494 124.072C99.4347 124.151 99.32 124.229 99.2052 124.311C97.6684 125.375 96.2206 126.562 94.8761 127.86C94.7705 127.959 94.665 128.06 94.5625 128.162C91.3565 131.324 88.7655 135.054 86.9212 139.162C86.1888 140.798 85.5818 142.487 85.1057 144.214C84.4482 146.6 83.9251 149.239 82.5581 151.21C82.4178 151.418 82.2648 151.616 82.0999 151.804L69.3293 152.108C69.3 152.095 69.2705 152.084 69.241 152.07L68.7317 152.105C68.75 152.014 68.771 151.921 68.7893 151.83C68.7998 151.777 68.813 151.724 68.8234 151.672C68.8313 151.636 68.8393 151.601 68.8443 151.569C68.8469 151.557 68.8496 151.546 68.8522 151.537C68.8573 151.505 68.8654 151.475 68.8706 151.446C68.9863 150.921 69.106 150.397 69.2295 149.872C69.2295 149.869 69.2295 149.869 69.2322 149.866C70.1838 145.87 71.4773 141.918 73.3295 138.288C73.3852 138.179 73.4408 138.067 73.5024 137.957C74.3464 136.326 75.3223 134.766 76.4204 133.293C77.0242 132.489 77.6685 131.716 78.3505 130.976C80.1166 129.07 82.1716 127.452 84.4401 126.184C88.9629 123.657 94.2436 122.604 99.1738 123.965C99.2999 124 99.4233 124.035 99.5494 124.072Z" fill="#F0F0F0"/>
<path d="M99.5247 124.235C93.1955 125.65 87.4729 129.022 83.1697 133.874C82.2248 134.902 81.4479 136.073 80.8675 137.343C80.3421 138.598 80.1624 139.972 80.3472 141.32C80.4943 142.581 80.7907 143.853 80.6287 145.128C80.5361 145.779 80.307 146.403 79.9562 146.959C79.6055 147.516 79.1411 147.992 78.5935 148.356C77.2527 149.299 75.653 149.704 74.0748 150.046C72.3226 150.426 70.4965 150.792 69.0536 151.927C68.8787 152.064 68.6757 151.785 68.8502 151.647C71.3607 149.674 74.7956 149.993 77.5597 148.576C78.8494 147.915 79.9477 146.861 80.2362 145.393C80.4884 144.11 80.1839 142.798 80.024 141.522C79.8244 140.21 79.9493 138.868 80.3877 137.615C80.9016 136.319 81.6322 135.121 82.5482 134.07C84.5727 131.673 86.9615 129.608 89.6273 127.953C92.6592 126.047 95.9949 124.673 99.49 123.891C99.7063 123.843 99.7396 124.187 99.5247 124.235Z" fill="white"/>
<path d="M84.4634 132.23C83.7473 131.398 83.3505 130.338 83.3438 129.24C83.3371 128.142 83.7209 127.077 84.4268 126.236C84.5702 126.066 84.8406 126.281 84.697 126.451C84.0383 127.233 83.6809 128.225 83.6892 129.248C83.6976 130.27 84.0711 131.256 84.7425 132.027C84.8882 132.195 84.6083 132.397 84.4634 132.23Z" fill="white"/>
<path d="M80.1883 140.691C82.4251 140.879 84.6507 140.217 86.4213 138.838C86.5966 138.701 86.7997 138.98 86.6246 139.117C84.7794 140.549 82.4619 141.233 80.1347 141.032C79.9129 141.012 79.9677 140.671 80.1883 140.691H80.1883Z" fill="white"/>
<path d="M92.7288 126.499C92.9387 126.879 93.2397 127.201 93.6047 127.435C93.9697 127.67 94.3873 127.811 94.82 127.844C95.042 127.861 94.9869 128.202 94.7664 128.185C94.2885 128.146 93.8275 127.99 93.4237 127.732C93.0198 127.473 92.6854 127.12 92.4496 126.702C92.4241 126.665 92.4138 126.619 92.4209 126.574C92.4279 126.53 92.4517 126.489 92.4875 126.461C92.5246 126.434 92.5708 126.423 92.6159 126.431C92.6611 126.438 92.7016 126.462 92.7288 126.499Z" fill="white"/>
<path d="M130.225 121.526C130.012 121.525 129.8 121.488 129.6 121.415L125.832 120.055L125.833 120.051C125.409 119.861 125.072 119.519 124.89 119.092C124.707 118.664 124.694 118.184 124.851 117.747L135.161 89.194C135.489 88.2857 136.153 87.5376 137.016 87.1038C137.879 86.67 138.875 86.5834 139.8 86.8618C140.725 87.1402 141.508 87.7625 141.988 88.6006C142.468 89.4387 142.608 90.4289 142.381 91.3675C142.348 91.4997 142.309 91.6302 142.262 91.7583L131.952 120.311C131.824 120.666 131.589 120.973 131.28 121.191C130.971 121.408 130.603 121.525 130.225 121.526H130.225Z" fill="#6AD59D"/>
<path d="M154.616 152.069H150.741C150.254 152.069 149.787 151.875 149.442 151.53C149.098 151.186 148.904 150.719 148.903 150.232V117.937C148.904 117.45 149.098 116.983 149.442 116.638C149.787 116.294 150.254 116.1 150.741 116.099H154.616C155.103 116.1 155.57 116.294 155.915 116.638C156.259 116.983 156.453 117.45 156.454 117.937V150.232C156.453 150.719 156.259 151.186 155.915 151.53C155.57 151.875 155.103 152.069 154.616 152.069Z" fill="#6AD59D"/>
<path d="M145.902 152.069H142.027C141.54 152.069 141.073 151.875 140.728 151.53C140.384 151.186 140.19 150.719 140.189 150.232V117.937C140.19 117.45 140.384 116.983 140.728 116.638C141.073 116.294 141.54 116.1 142.027 116.099H145.902C146.389 116.1 146.856 116.294 147.201 116.638C147.545 116.983 147.739 117.45 147.74 117.937V150.232C147.739 150.719 147.545 151.186 147.201 151.53C146.856 151.875 146.389 152.069 145.902 152.069Z" fill="#6AD59D"/>
<path d="M148.206 80.9523C155.6 80.9523 161.595 74.9578 161.595 67.5633C161.595 60.1688 155.6 54.1744 148.206 54.1744C140.811 54.1744 134.817 60.1688 134.817 67.5633C134.817 74.9578 140.811 80.9523 148.206 80.9523Z" fill="#6AD59D"/>
<path d="M149.771 73.1838C148.903 73.1597 147.823 73.1295 146.991 72.5217C146.743 72.3332 146.54 72.0929 146.394 71.8175C146.249 71.5421 146.166 71.2383 146.151 70.9274C146.136 70.7064 146.172 70.485 146.257 70.2804C146.341 70.0757 146.472 69.8935 146.639 69.7478C147.074 69.3806 147.708 69.2944 148.392 69.4954L147.684 64.3169L148.204 64.2456L149.037 70.3336L148.603 70.1343C148.099 69.9033 147.408 69.7858 146.978 70.1488C146.873 70.2437 146.79 70.3617 146.738 70.4935C146.685 70.6253 146.664 70.7675 146.675 70.909C146.688 71.1404 146.751 71.3663 146.859 71.5714C146.966 71.7765 147.117 71.956 147.301 72.0976C147.948 72.5706 148.809 72.6317 149.786 72.659L149.771 73.1838Z" fill="#2F2E41"/>
<path d="M145.111 64.7635H142.283V65.2886H145.111V64.7635Z" fill="#2F2E41"/>
<path d="M154.037 64.7635H151.209V65.2886H154.037V64.7635Z" fill="#2F2E41"/>
<path d="M166.279 121.3C165.911 121.299 165.551 121.188 165.246 120.981C164.942 120.774 164.706 120.481 164.569 120.138L153.394 91.9132C153.211 91.4522 153.121 90.9599 153.129 90.4642C153.137 89.9685 153.242 89.4792 153.439 89.0242C153.636 88.5692 153.92 88.1575 154.276 87.8125C154.632 87.4675 155.053 87.1959 155.514 87.0134C155.975 86.8309 156.467 86.741 156.963 86.7488C157.458 86.7565 157.948 86.8619 158.403 87.0587C158.858 87.2556 159.269 87.5402 159.614 87.8962C159.959 88.2522 160.231 88.6726 160.413 89.1336L171.589 117.359C171.685 117.6 171.729 117.858 171.717 118.117C171.701 118.471 171.583 118.813 171.377 119.101C171.171 119.39 170.887 119.613 170.557 119.744L166.955 121.171C166.74 121.256 166.51 121.3 166.279 121.3Z" fill="#6AD59D"/>
<path d="M158.043 109.17L161.717 92.5442C161.717 90.9768 161.095 89.4736 159.986 88.3653C158.878 87.2569 157.375 86.6343 155.807 86.6342H139.799C138.232 86.6343 136.729 87.2569 135.62 88.3653C134.512 89.4736 133.889 90.9768 133.889 92.5442L138.315 109.044C135.769 109.376 133.889 110.543 133.889 111.93L140.19 123.781L156.467 123.913L161.717 111.93C161.717 110.683 160.198 109.615 158.043 109.17Z" fill="#2F2E41"/>
<path d="M163.011 62.7476C162.344 59.3548 160.523 56.2976 157.858 54.0954C155.192 51.8933 151.846 50.6822 148.388 50.668C144.931 50.6538 141.575 51.8374 138.891 54.0175C136.208 56.1977 134.362 59.2399 133.668 62.6271C132.483 63.1085 131.503 63.9866 130.895 65.1112C130.287 66.2357 130.088 67.5367 130.334 68.7913C130.579 70.046 131.253 71.1764 132.24 71.9889C133.227 72.8014 134.466 73.2456 135.744 73.2453V62.2191C135.434 62.221 135.125 62.2489 134.82 62.3027C135.565 59.2781 137.303 56.5911 139.757 54.672C142.21 52.7529 145.237 51.7127 148.352 51.718C151.467 51.7234 154.49 52.7739 156.937 54.7014C159.384 56.629 161.113 59.3219 161.847 62.349C161.46 62.2634 161.064 62.2199 160.667 62.2191V73.2453C161.92 73.2461 163.136 72.8196 164.115 72.0362C165.093 71.2527 165.775 70.1592 166.048 68.9361C166.321 67.7129 166.169 66.4332 165.617 65.3082C165.064 64.1831 164.145 63.2799 163.011 62.7476Z" fill="#2F2E41"/>
<path d="M155.196 61.4201C152.789 60.2258 150.091 59.7467 147.421 60.0397C145.965 60.1877 144.516 60.4158 143.066 60.6127C141.851 60.7777 140.471 60.9962 139.359 60.3364C137.471 59.216 137.135 56.4974 137.537 54.5386C137.747 53.4644 138.186 52.4481 138.825 51.5588C139.463 50.6696 140.285 49.9283 141.236 49.3854C142.366 48.7767 143.63 48.4593 144.914 48.4618C146.197 48.4643 147.46 48.7867 148.588 49.3997C148.679 49.4494 148.785 49.4624 148.885 49.4361C148.986 49.4099 149.072 49.3463 149.127 49.2585C150.535 47.3549 152.443 45.7419 154.688 44.9305C156.762 44.2102 159.001 44.1026 161.135 44.6205C163.302 45.1286 165.325 46.1238 167.05 47.5306C168.846 49.0316 170.31 50.8904 171.348 52.9886C173.662 57.5252 174.198 62.732 174.024 67.7548C173.922 70.6779 173.595 73.5867 173.272 76.4917C173.11 77.946 172.949 79.4006 172.816 80.8579C172.664 82.1052 172.662 83.3661 172.81 84.6138C172.961 85.7873 173.462 86.8883 174.246 87.7741C174.996 88.5628 175.94 89.1408 176.983 89.4503C179.332 90.1799 181.819 89.5599 183.914 88.3899C184.472 88.0751 185.01 87.7267 185.526 87.3465C185.931 87.0505 185.538 86.3668 185.128 86.6664C183.138 88.1203 180.661 89.314 178.131 88.9111C177.055 88.7574 176.043 88.3074 175.208 87.6116C174.342 86.8306 173.775 85.7724 173.604 84.6186C173.382 83.36 173.494 82.0574 173.609 80.7937C173.743 79.3364 173.905 77.8819 174.067 76.4275C174.393 73.5013 174.72 70.5709 174.816 67.6262C174.979 62.5869 174.406 57.3988 172.146 52.8274C171.123 50.695 169.682 48.7899 167.908 47.2253C166.205 45.7564 164.207 44.671 162.048 44.0428C159.931 43.4133 157.687 43.3468 155.536 43.8499C153.244 44.4591 151.177 45.7194 149.585 47.4784C149.18 47.9175 148.8 48.3791 148.447 48.861L148.986 48.7197C147.916 48.1353 146.734 47.7869 145.519 47.6978C144.304 47.6088 143.084 47.7813 141.941 48.2036C140.831 48.6285 139.826 49.2879 138.995 50.1367C138.164 50.9855 137.525 52.0037 137.123 53.1218C136.339 55.2379 136.341 57.9271 137.697 59.8212C138.05 60.3265 138.514 60.7448 139.052 61.0446C139.591 61.3444 140.191 61.5178 140.806 61.5516C141.495 61.5809 142.185 61.5394 142.865 61.4278C143.625 61.3265 144.384 61.2216 145.144 61.1184C146.817 60.8911 148.49 60.6368 150.182 60.7842C151.79 60.9284 153.356 61.3749 154.798 62.1002C155.25 62.3266 155.649 61.6475 155.196 61.4201Z" fill="#2F2E41"/>
<path d="M208.687 152.434H38.7546C38.6718 152.434 38.5925 152.401 38.5341 152.342C38.4757 152.284 38.4429 152.204 38.4429 152.122C38.4429 152.039 38.4757 151.959 38.5341 151.901C38.5925 151.842 38.6718 151.809 38.7546 151.809H208.687C208.77 151.809 208.849 151.842 208.908 151.901C208.966 151.959 208.999 152.039 208.999 152.122C208.999 152.204 208.966 152.284 208.908 152.342C208.849 152.401 208.77 152.434 208.687 152.434Z" fill="#3F3D56"/>
<path d="M85.8466 43.0546C85.8465 44.8979 85.729 46.7393 85.4948 48.5677H0.614213C0.380049 46.7393 0.262562 44.8979 0.262467 43.0546C0.257643 37.4319 1.36093 31.8635 3.50928 26.6675C5.65762 21.4715 8.8089 16.7498 12.783 12.7723C16.7571 8.79476 21.4761 5.63944 26.6702 3.48664C31.8644 1.33384 37.4319 0.225769 43.0545 0.225769C48.6772 0.225769 54.2447 1.33384 59.4388 3.48664C64.633 5.63944 69.352 8.79476 73.3261 12.7723C77.3002 16.7498 80.4514 21.4715 82.5998 26.6675C84.7481 31.8635 85.8514 37.4319 85.8466 43.0546Z" fill="#F0F0F0"/>
<path d="M43.0546 86.1092C21.4609 86.1092 3.1036 69.9842 0.353905 48.6011C0.118857 46.7616 0.000655555 44.909 1.57531e-05 43.0546C-0.00482333 37.3975 1.10525 31.7949 3.26677 26.567C5.4283 21.3391 8.59892 16.5885 12.5974 12.5866C16.5959 8.58467 21.3438 5.41 26.5698 3.244C31.7958 1.078 37.3975 -0.0368652 43.0546 -0.0368652C48.7117 -0.0368652 54.3134 1.078 59.5394 3.244C64.7654 5.41 69.5134 8.58467 73.5118 12.5866C77.5103 16.5885 80.6809 21.3391 82.8425 26.567C85.004 31.7949 86.1141 37.3975 86.1092 43.0546C86.1086 44.909 85.9904 46.7615 85.7554 48.601C83.0056 69.9842 64.6483 86.1092 43.0546 86.1092ZM43.0546 0.525037C23.2164 0.525037 5.74391 14.5706 1.50875 33.9222C0.853653 36.9222 0.523853 39.984 0.525072 43.0546C0.525715 44.8867 0.642494 46.717 0.874703 48.5343C3.59082 69.656 21.7242 85.5841 43.0546 85.5841C64.385 85.5841 82.5184 69.656 85.2345 48.5342C85.4668 46.7169 85.5835 44.8867 85.5842 43.0546C85.5854 39.984 85.2556 36.9222 84.6005 33.9222C80.3653 14.5705 62.8928 0.525037 43.0546 0.525037Z" fill="#3F3D56"/>
<path d="M70.0763 56.6165H16.0328C15.7701 56.6165 15.5182 56.7208 15.3325 56.9065C15.1468 57.0922 15.0425 57.3441 15.0425 57.6068C15.0425 57.8694 15.1468 58.1213 15.3325 58.307C15.5182 58.4927 15.7701 58.597 16.0328 58.597H70.0763C70.3387 58.5966 70.5901 58.4921 70.7755 58.3064C70.9609 58.1208 71.065 57.8691 71.065 57.6068C71.065 57.3444 70.9609 57.0927 70.7755 56.9071C70.5901 56.7214 70.3387 56.6169 70.0763 56.6165Z" fill="#CACACA"/>
<path d="M51.591 56.6165V58.597H16.0329C15.7705 58.5966 15.519 58.4921 15.3337 58.3064C15.1483 58.1208 15.0442 57.8691 15.0442 57.6068C15.0442 57.3444 15.1483 57.0927 15.3337 56.9071C15.519 56.7214 15.7705 56.6169 16.0329 56.6165H51.591Z" fill="#6AD59D"/>
<path d="M51.5909 59.5873C52.6848 59.5873 53.5715 58.7006 53.5715 57.6067C53.5715 56.5129 52.6848 55.6262 51.5909 55.6262C50.4971 55.6262 49.6104 56.5129 49.6104 57.6067C49.6104 58.7006 50.4971 59.5873 51.5909 59.5873Z" fill="#6AD59D"/>
<path d="M43.0545 76.323C42.0751 76.323 41.1178 76.0326 40.3035 75.4885C39.4892 74.9444 38.8545 74.171 38.4797 73.2662C38.1049 72.3614 38.0069 71.3658 38.1979 70.4053C38.389 69.4447 38.8606 68.5624 39.5531 67.8699C40.2456 67.1774 41.1279 66.7058 42.0885 66.5147C43.049 66.3237 44.0446 66.4217 44.9494 66.7965C45.8542 67.1713 46.6276 67.806 47.1717 68.6203C47.7158 69.4346 48.0062 70.3919 48.0062 71.3713C48.0047 72.6841 47.4826 73.9427 46.5543 74.871C45.6259 75.7994 44.3673 76.3215 43.0545 76.323ZM43.0545 66.8005C42.1505 66.8005 41.2668 67.0686 40.5151 67.5708C39.7634 68.0731 39.1776 68.7869 38.8316 69.6221C38.4857 70.4573 38.3951 71.3764 38.5715 72.263C38.7479 73.1497 39.1832 73.9641 39.8224 74.6033C40.4617 75.2426 41.2761 75.6779 42.1628 75.8543C43.0494 76.0306 43.9685 75.9401 44.8037 75.5942C45.6389 75.2482 46.3527 74.6624 46.855 73.9107C47.3572 73.159 47.6253 72.2753 47.6253 71.3713C47.6239 70.1595 47.1419 68.9977 46.285 68.1408C45.4281 67.2839 44.2663 66.8019 43.0545 66.8005Z" fill="#6AD59D"/>
<path d="M42.4007 74.0376C42.3501 74.0376 42.3017 74.0176 42.266 73.9819C42.2303 73.9461 42.2102 73.8977 42.2102 73.8472V68.8955C42.2102 68.8705 42.2151 68.8457 42.2247 68.8226C42.2343 68.7995 42.2483 68.7785 42.266 68.7608C42.2837 68.7431 42.3047 68.7291 42.3278 68.7195C42.3509 68.7099 42.3756 68.705 42.4007 68.705C42.4257 68.705 42.4504 68.7099 42.4735 68.7195C42.4966 68.7291 42.5176 68.7431 42.5353 68.7608C42.553 68.7785 42.567 68.7995 42.5766 68.8226C42.5862 68.8457 42.5911 68.8705 42.5911 68.8955V73.8472C42.5911 73.8977 42.571 73.9461 42.5353 73.9819C42.4996 74.0176 42.4512 74.0376 42.4007 74.0376Z" fill="#6AD59D"/>
<path d="M43.7085 74.0376C43.658 74.0376 43.6096 74.0176 43.5739 73.9819C43.5381 73.9461 43.5181 73.8977 43.5181 73.8472V68.8955C43.5181 68.8705 43.523 68.8457 43.5326 68.8226C43.5421 68.7995 43.5562 68.7785 43.5739 68.7608C43.5915 68.7431 43.6125 68.7291 43.6356 68.7195C43.6587 68.7099 43.6835 68.705 43.7085 68.705C43.7335 68.705 43.7583 68.7099 43.7814 68.7195C43.8045 68.7291 43.8255 68.7431 43.8432 68.7608C43.8609 68.7785 43.8749 68.7995 43.8845 68.8226C43.894 68.8457 43.899 68.8705 43.899 68.8955V73.8472C43.899 73.8977 43.8789 73.9461 43.8432 73.9819C43.8075 74.0176 43.759 74.0376 43.7085 74.0376Z" fill="#6AD59D"/>
<path d="M20.3745 71.3713C20.3745 70.3919 20.6649 69.4346 21.209 68.6203C21.7531 67.806 22.5265 67.1713 23.4313 66.7965C24.3361 66.4217 25.3317 66.3237 26.2923 66.5147C27.2528 66.7058 28.1351 67.1774 28.8276 67.8699C29.5201 68.5624 29.9917 69.4447 30.1828 70.4053C30.3739 71.3658 30.2758 72.3614 29.901 73.2662C29.5262 74.171 28.8916 74.9444 28.0772 75.4885C27.2629 76.0326 26.3056 76.323 25.3262 76.323C24.0134 76.3215 22.7548 75.7994 21.8265 74.871C20.8982 73.9427 20.376 72.6841 20.3745 71.3713ZM20.7554 71.3713C20.7554 72.2753 21.0235 73.159 21.5257 73.9107C22.028 74.6624 22.7418 75.2482 23.5771 75.5942C24.4123 75.9401 25.3313 76.0306 26.218 75.8543C27.1046 75.6779 27.919 75.2426 28.5583 74.6033C29.1975 73.9641 29.6328 73.1497 29.8092 72.263C29.9856 71.3764 29.8951 70.4573 29.5491 69.6221C29.2032 68.7869 28.6173 68.0731 27.8656 67.5708C27.114 67.0686 26.2302 66.8005 25.3262 66.8005C24.1144 66.8019 22.9526 67.2839 22.0957 68.1408C21.2388 68.9977 20.7568 70.1595 20.7554 71.3713Z" fill="#3F3D56"/>
<path d="M27.4651 73.0385C27.5 73.0385 27.5339 73.027 27.5616 73.0058C27.5893 72.9846 27.6092 72.9548 27.6182 72.9211C27.6272 72.8874 27.6249 72.8517 27.6116 72.8195C27.5982 72.7873 27.5746 72.7603 27.5444 72.7429L25.1687 71.3713L27.5444 69.9997C27.5806 69.9786 27.607 69.944 27.6178 69.9035C27.6286 69.863 27.6229 69.8199 27.6019 69.7836C27.581 69.7473 27.5465 69.7208 27.506 69.7099C27.4656 69.699 27.4224 69.7045 27.3861 69.7253L24.7728 71.2341C24.7487 71.248 24.7287 71.268 24.7148 71.2921C24.7009 71.3162 24.6936 71.3435 24.6936 71.3713C24.6936 71.3991 24.7009 71.4264 24.7148 71.4505C24.7287 71.4746 24.7487 71.4946 24.7728 71.5085L27.3861 73.0173C27.4101 73.0312 27.4373 73.0385 27.4651 73.0385Z" fill="#3F3D56"/>
<path d="M23.9611 73.5886C24.0031 73.5886 24.0434 73.5719 24.0731 73.5422C24.1028 73.5125 24.1195 73.4722 24.1195 73.4302V69.3124C24.1196 69.2915 24.1156 69.2709 24.1076 69.2516C24.0997 69.2323 24.0881 69.2147 24.0733 69.2C24.0586 69.1852 24.0411 69.1735 24.0219 69.1655C24.0026 69.1575 23.982 69.1534 23.9611 69.1534C23.9403 69.1534 23.9196 69.1575 23.9004 69.1655C23.8811 69.1735 23.8636 69.1852 23.8489 69.2C23.8342 69.2147 23.8225 69.2323 23.8146 69.2516C23.8067 69.2709 23.8027 69.2915 23.8027 69.3124V73.4302C23.8027 73.4722 23.8194 73.5125 23.8491 73.5422C23.8788 73.5719 23.9191 73.5886 23.9611 73.5886Z" fill="#3F3D56"/>
<path d="M60.783 76.323C59.8037 76.323 58.8463 76.0326 58.032 75.4885C57.2177 74.9444 56.583 74.171 56.2082 73.2662C55.8334 72.3614 55.7354 71.3658 55.9264 70.4053C56.1175 69.4447 56.5891 68.5624 57.2816 67.8699C57.9741 67.1774 58.8564 66.7058 59.817 66.5147C60.7775 66.3237 61.7731 66.4217 62.678 66.7965C63.5828 67.1713 64.3561 67.806 64.9002 68.6203C65.4443 69.4346 65.7347 70.3919 65.7347 71.3713C65.7332 72.6841 65.2111 73.9427 64.2828 74.871C63.3545 75.7994 62.0958 76.3215 60.783 76.323ZM60.783 66.8005C59.879 66.8005 58.9953 67.0686 58.2436 67.5708C57.4919 68.0731 56.9061 68.7869 56.5601 69.6221C56.2142 70.4573 56.1237 71.3764 56.3 72.263C56.4764 73.1497 56.9117 73.9641 57.551 74.6033C58.1902 75.2426 59.0046 75.6779 59.8913 75.8543C60.7779 76.0306 61.697 75.9401 62.5322 75.5942C63.3674 75.2482 64.0813 74.6624 64.5835 73.9107C65.0858 73.159 65.3538 72.2753 65.3538 71.3713C65.3524 70.1595 64.8704 68.9977 64.0135 68.1408C63.1566 67.2839 61.9948 66.8019 60.783 66.8005Z" fill="#3F3D56"/>
<path d="M58.6441 73.0385C58.6093 73.0385 58.5753 73.027 58.5477 73.0058C58.52 72.9846 58.5001 72.9548 58.491 72.9211C58.482 72.8874 58.4843 72.8517 58.4976 72.8195C58.511 72.7873 58.5346 72.7603 58.5648 72.7429L60.9405 71.3713L58.5648 69.9997C58.5286 69.9786 58.5022 69.944 58.4914 69.9035C58.4806 69.863 58.4863 69.8199 58.5073 69.7836C58.5283 69.7473 58.5627 69.7208 58.6032 69.7099C58.6437 69.699 58.6868 69.7045 58.7232 69.7253L61.3364 71.2341C61.3605 71.248 61.3805 71.268 61.3944 71.2921C61.4083 71.3162 61.4156 71.3435 61.4156 71.3713C61.4156 71.3991 61.4083 71.4264 61.3944 71.4505C61.3805 71.4746 61.3605 71.4946 61.3364 71.5085L58.7232 73.0173C58.6991 73.0312 58.6719 73.0385 58.6441 73.0385Z" fill="#3F3D56"/>
<path d="M62.1481 73.5886C62.1061 73.5886 62.0658 73.5719 62.0361 73.5422C62.0064 73.5125 61.9897 73.4722 61.9897 73.4302V69.3124C61.9897 69.2915 61.9937 69.2709 62.0016 69.2516C62.0095 69.2323 62.0212 69.2147 62.0359 69.2C62.0506 69.1852 62.0681 69.1735 62.0874 69.1655C62.1066 69.1575 62.1273 69.1534 62.1481 69.1534C62.169 69.1534 62.1896 69.1575 62.2089 69.1655C62.2281 69.1735 62.2456 69.1852 62.2603 69.2C62.2751 69.2147 62.2867 69.2323 62.2946 69.2516C62.3026 69.2709 62.3066 69.2915 62.3065 69.3124V73.4302C62.3065 73.4722 62.2898 73.5125 62.2601 73.5422C62.2304 73.5719 62.1901 73.5886 62.1481 73.5886Z" fill="#3F3D56"/>
<path d="M52.884 38.9854H40.0511C39.2118 38.9845 38.4071 38.6506 37.8136 38.0571C37.22 37.4636 36.8862 36.6589 36.8853 35.8196V22.9867C36.8862 22.1474 37.22 21.3427 37.8136 20.7492C38.4071 20.1557 39.2118 19.8218 40.0511 19.8209H52.884C53.7233 19.8218 54.528 20.1557 55.1215 20.7492C55.715 21.3427 56.0488 22.1474 56.0498 22.9867V35.8196C56.0488 36.6589 55.715 37.4636 55.1215 38.0571C54.528 38.6506 53.7233 38.9845 52.884 38.9854Z" fill="white"/>
<path d="M47.8958 35.1788H35.063C34.1888 35.1778 33.3508 34.8301 32.7327 34.212C32.1145 33.5939 31.7669 32.7558 31.7659 31.8817V19.0488C31.7669 18.1747 32.1145 17.3366 32.7327 16.7185C33.3508 16.1004 34.1888 15.7527 35.063 15.7517H47.8958C48.77 15.7527 49.608 16.1004 50.2262 16.7185C50.8443 17.3366 51.192 18.1747 51.1929 19.0488V31.8817C51.192 32.7558 50.8443 33.5939 50.2262 34.212C49.608 34.8301 48.77 35.1778 47.8958 35.1788ZM35.063 16.2768C34.328 16.2776 33.6234 16.5699 33.1038 17.0896C32.5841 17.6093 32.2918 18.3139 32.2909 19.0488V31.8817C32.2918 32.6166 32.5841 33.3212 33.1038 33.8409C33.6234 34.3606 34.328 34.6529 35.063 34.6537H47.8958C48.6308 34.6529 49.3354 34.3606 49.855 33.8409C50.3747 33.3212 50.6671 32.6166 50.6679 31.8817V19.0488C50.6671 18.3139 50.3747 17.6093 49.855 17.0896C49.3354 16.5699 48.6308 16.2776 47.8958 16.2768H35.063Z" fill="white"/>
</g>
<defs>
<clipPath id="clip0_1_1050">
<rect width="209" height="152.434" fill="white"/>
</clipPath>
</defs>
</svg>
