<svg width="134" height="159" viewBox="0 0 134 159" fill="none" xmlns="http://www.w3.org/2000/svg">
<g clip-path="url(#clip0_1_1247)">
<path d="M95.295 133.43L96.6205 159C96.6205 159 40.5531 105.384 33.5681 89.6965C26.5831 74.0091 39.7313 35.2034 39.7313 35.2034L68.904 51.3036L95.295 133.43Z" fill="#6AD59D"/>
<path d="M9.32609 24.4699L0.69756 25.2956C0.69756 25.2956 -3.82216 35.2034 10.1479 36.0291L9.32609 24.4699Z" fill="#6AD59D"/>
<path d="M9.32609 39.7445L0.69756 40.5702C0.69756 40.5702 -3.82216 50.478 10.1479 51.3037L9.32609 39.7445Z" fill="#6AD59D"/>
<path d="M9.32609 56.2576L0.69756 57.0832C0.69756 57.0832 -3.82216 66.9911 10.1479 67.8167L9.32609 56.2576Z" fill="#6AD59D"/>
<path d="M11.7914 72.7706L3.16289 73.5963C3.16289 73.5963 -1.35683 83.5041 12.6132 84.3298L11.7914 72.7706Z" fill="#6AD59D"/>
<path d="M5.12524 28.4502H5.77996V10.4298C5.77996 9.06011 6.04846 7.70387 6.57013 6.43847C7.09181 5.17307 7.85644 4.0233 8.82037 3.05481C9.7843 2.08632 10.9286 1.31807 12.1881 0.793923C13.4475 0.269777 14.7974 1.04937e-06 16.1606 0H54.1596C55.5228 -2.79825e-06 56.8727 0.269769 58.1321 0.793911C59.3915 1.31805 60.5359 2.0863 61.4998 3.05479C62.4638 4.02328 63.2284 5.17304 63.7501 6.43844C64.2718 7.70383 64.5403 9.06008 64.5403 10.4297V109.291C64.5403 110.661 64.2718 112.017 63.7501 113.283C63.2284 114.548 62.4638 115.698 61.4999 116.666C60.5359 117.635 59.3916 118.403 58.1321 118.927C56.8727 119.451 55.5229 119.721 54.1596 119.721H16.1606C13.4075 119.721 10.7672 118.622 8.82041 116.666C6.87365 114.71 5.77997 112.058 5.77996 109.291V41.2775H5.12524V28.4502Z" fill="#3F3D56"/>
<path d="M15.7419 2.71345H20.702C20.4739 3.27533 20.3869 3.88495 20.4485 4.4886C20.5101 5.09226 20.7186 5.67142 21.0554 6.17508C21.3923 6.67873 21.8473 7.09142 22.3803 7.37678C22.9133 7.66214 23.508 7.81142 24.112 7.81146H45.8811C46.4851 7.81142 47.0798 7.66214 47.6128 7.37678C48.1458 7.09142 48.6008 6.67874 48.9377 6.17508C49.2746 5.67143 49.483 5.09226 49.5447 4.4886C49.6063 3.88495 49.5192 3.27532 49.2911 2.71344H53.9239C55.9799 2.71344 57.9517 3.53404 59.4055 4.99473C60.8593 6.45541 61.6761 8.43653 61.6761 10.5023V109.219C61.6761 110.242 61.4755 111.255 61.0859 112.2C60.6964 113.145 60.1254 114.003 59.4055 114.726C58.6857 115.45 57.8311 116.023 56.8905 116.415C55.95 116.806 54.9419 117.008 53.9239 117.008H15.7419C14.7239 117.008 13.7158 116.806 12.7753 116.415C11.8347 116.023 10.9802 115.45 10.2603 114.726C9.54045 114.003 8.96942 113.145 8.57984 112.2C8.19026 111.255 7.98975 110.242 7.98975 109.219V10.5023C7.98975 9.47942 8.19026 8.46659 8.57984 7.52161C8.96942 6.57663 9.54045 5.71799 10.2603 4.99474C10.9802 4.27148 11.8347 3.69776 12.7753 3.30633C13.7158 2.91491 14.7239 2.71345 15.7419 2.71345Z" fill="white"/>
<path d="M43.0132 30.369H26.6523V34.3357H43.0132V30.369Z" fill="#6AD59D"/>
<path d="M43.7922 47.4137H25.8735V51.3804H43.7922V47.4137Z" fill="#E5E5E5"/>
<path d="M54.8292 55.9346H14.8364V59.9014H54.8292V55.9346Z" fill="#E5E5E5"/>
<path d="M54.8292 64.4556H14.8364V68.4223H54.8292V64.4556Z" fill="#E5E5E5"/>
<path d="M134 146.748L88.0101 94.0312L86.3666 60.1794L69.1095 31.2815L64.1789 18.8967C64.1789 18.8967 52.6742 20.1352 62.1245 43.6663L66.0279 56.2575C62.5093 63.8719 60.6864 72.1659 60.6864 80.5609V109.414C60.6864 116.207 92.9095 153.214 96.6603 158.867L134 146.748Z" fill="#6AD59D"/>
<path opacity="0.2" d="M65.5318 33.7302L68.9625 32.0362L68.8456 31.797L65.6758 33.3624L60.8907 20.7576L60.6431 20.8527L65.5318 33.7302Z" fill="black"/>
<path opacity="0.2" d="M0.743502 25.1701L0.651855 25.4201L5.73408 27.3011L5.82573 27.0511L0.743502 25.1701Z" fill="black"/>
<path opacity="0.2" d="M0.743502 40.6188L0.651855 40.8688L5.73408 42.7497L5.82573 42.4998L0.743502 40.6188Z" fill="black"/>
<path opacity="0.2" d="M0.743502 57.1328L0.651855 57.3828L5.73408 59.2638L5.82573 59.0138L0.743502 57.1328Z" fill="black"/>
<path opacity="0.2" d="M3.40619 73.6519L3.2915 73.892L5.76583 75.0852L5.88052 74.8451L3.40619 73.6519Z" fill="black"/>
<path d="M34.8532 102.655C41.1825 102.655 46.3135 97.4998 46.3135 91.1405C46.3135 84.7812 41.1825 79.6259 34.8532 79.6259C28.5238 79.6259 23.3928 84.7812 23.3928 91.1405C23.3928 97.4998 28.5238 102.655 34.8532 102.655Z" fill="#6AD59D"/>
<path d="M33.7609 96.0011L30.3311 91.5698L32.3257 90.0111L33.9497 92.1091L39.4365 86.2898L41.2713 88.0363L33.7609 96.0011Z" fill="white"/>
</g>
<defs>
<clipPath id="clip0_1_1247">
<rect width="134" height="159" fill="white"/>
</clipPath>
</defs>
</svg>
